# xmcd
#
# Track frame offsets:
#	150
#	14851
#	30534
#	41808
#	58703
#	74027
#	87331
#	101913
#	116199
#	130106
#	140714
#	154593
#	169820
#	182400
#	194165
#	205244
#	219025
#	231894
#	243272
#	256709
#
# Disc length: 3578 seconds
#
# Revision: 1
# Processed by: cddbd v1.5.2PL0 Copyright (c) Steve Scherf et al.
# Submitted via: audiograbber 1.83.01
#
DISCID=2b0df814
DTITLE=SIVUCA - FORRÓ E FREVO - VOL. 1 E 2
DYEAR=1900
DGENRE=FORRÓ
TTITLE0=PICADINHO
TTITLE1=CAPOEIRA POEIRA
TTITLE2=FORRÓ EM SANTA LUZIA
TTITLE3=COME E DORME
TTITLE4=FURIOSA DE QUPAPE
TTITLE5=XANANA
TTITLE6=NAS QUEBRADAS
TTITLE7=TAS COCHILANDO ZÉ
TTITLE8=ALAGAMAR
TTITLE9=GUERRA DAS ANDORINHAS
TTITLE10=FEIRA DE SÃO CRISTÓVÃO
TTITLE11=EU GOSTO DESSE MOÇO
TTITLE12=FORRÓ CHORANDO
TTITLE13=MOGEIRO DE CIMA, MOGEIRO DE BAIXO
TTITLE14=SÁBADO EM JABOATÃO
TTITLE15=CAETÉ
TTITLE16=ESTRANHO VANERÃO
TTITLE17=FORRÓ NA GAFIEIRA
TTITLE18=CABORÉ MOLHADO
TTITLE19=LUZIA NO FREVO
EXTD=
EXTT0=
EXTT1=
EXTT2=
EXTT3=
EXTT4=
EXTT5=
EXTT6=
EXTT7=
EXTT8=
EXTT9=
EXTT10=
EXTT11=
EXTT12=
EXTT13=
EXTT14=
EXTT15=
EXTT16=
EXTT17=
EXTT18=
EXTT19=
PLAYORDER=
